<svg width="81" height="80" viewBox="0 0 81 80" fill="none" xmlns="http://www.w3.org/2000/svg">
<path d="M40.2002 49.9998C53.5471 49.9998 64.3668 39.18 64.3668 25.8332C64.3668 12.4863 53.5471 1.6665 40.2002 1.6665C26.8533 1.6665 16.0335 12.4863 16.0335 25.8332C16.0335 39.18 26.8533 49.9998 40.2002 49.9998Z" stroke="#FAF5F1"/>
<path d="M71.4998 29.0033C69.1713 44.1966 56.0447 55.8334 40.2002 55.8334C24.3545 55.8334 11.2271 44.1949 8.90002 29" stroke="#FAF5F1"/>
<path d="M42.7002 55.8335H37.7002V67.5002H42.7002V55.8335Z" stroke="#FAF5F1"/>
<path d="M27.196 74.1667C26.6002 74.1667 26.1314 73.6456 26.2843 73.0698C27.1359 69.863 30.0587 67.5 33.5335 67.5H46.8668C50.3417 67.5 53.2645 69.863 54.1161 73.0698C54.269 73.6456 53.8002 74.1667 53.2044 74.1667H27.196Z" stroke="#FAF5F1"/>
<path d="M8.53351 29.1665C9.91422 29.1665 11.0335 28.0472 11.0335 26.6665C11.0335 25.2858 9.91422 24.1665 8.53351 24.1665C7.1528 24.1665 6.03351 25.2858 6.03351 26.6665C6.03351 28.0472 7.1528 29.1665 8.53351 29.1665Z" stroke="#FAF5F1"/>
<path d="M71.8669 29.1665C73.2476 29.1665 74.3669 28.0472 74.3669 26.6665C74.3669 25.2858 73.2476 24.1665 71.8669 24.1665C70.4862 24.1665 69.3669 25.2858 69.3669 26.6665C69.3669 28.0472 70.4862 29.1665 71.8669 29.1665Z" stroke="#FAF5F1"/>
<path d="M51.8669 14.1665L44.3669 20.8332" stroke="#FAF5F1" stroke-linecap="round"/>
<path d="M53.5335 20.8335L48.5335 25.8335" stroke="#FAF5F1" stroke-linecap="round"/>
<mask id="path-9-inside-1_24_12" fill="white">
<path d="M12.3089 54.0968C12.8527 55.448 13.664 56.6755 14.6939 57.7054C15.7239 58.7354 16.9513 59.5466 18.3026 60.0904C18.9685 60.3646 18.9685 60.6519 18.3026 60.9131C16.9513 61.4569 15.7239 62.2681 14.6939 63.298C13.664 64.328 12.8527 65.5554 12.3089 66.9067C12.0347 67.5727 11.7474 67.5727 11.4863 66.9067C10.941 65.5579 10.1291 64.3329 9.09923 63.3053C8.06935 62.2777 6.84266 61.4684 5.49263 60.9261C4.82667 60.665 4.82667 60.3777 5.49263 60.1035C6.84389 59.5597 8.07133 58.7484 9.10129 57.7185C10.1312 56.6885 10.9425 55.4611 11.4863 54.1098C11.7474 53.4439 12.0347 53.4439 12.3089 54.1098"/>
<path d="M72.3089 4.09677C72.8527 5.44802 73.664 6.67546 74.6939 7.70542C75.7239 8.73537 76.9513 9.5466 78.3026 10.0904C78.9685 10.3646 78.9685 10.6519 78.3026 10.9131C76.9513 11.4569 75.7239 12.2681 74.6939 13.298C73.664 14.328 72.8527 15.5554 72.3089 16.9067C72.0347 17.5727 71.7474 17.5727 71.4863 16.9067C70.941 15.5579 70.1291 14.3329 69.0992 13.3053C68.0693 12.2777 66.8427 11.4684 65.4926 10.9261C64.8267 10.665 64.8267 10.3777 65.4926 10.1035C66.8439 9.55966 68.0713 8.74843 69.1013 7.71848C70.1312 6.68852 70.9425 5.46108 71.4863 4.10982C71.7474 3.44386 72.0347 3.44386 72.3089 4.10982"/>
</mask>
<path d="M18.3026 60.0904L18.7105 59.0996L18.7026 59.0964L18.3026 60.0904ZM18.3026 60.9131L17.9114 59.9156L17.9026 59.9191L18.3026 60.9131ZM12.3089 66.9067L13.2997 67.3147L13.3029 67.3067L12.3089 66.9067ZM11.4863 66.9067L12.4838 66.5155L12.4796 66.5051L11.4863 66.9067ZM5.49263 60.9261L5.89204 59.9319L5.8838 59.9286L5.49263 60.9261ZM5.49263 60.1035L5.09261 59.1095L5.08469 59.1127L5.49263 60.1035ZM11.4863 54.1098L12.4803 54.5098L12.4837 54.501L11.4863 54.1098ZM78.3026 10.0904L78.7105 9.09965L78.7026 9.09645L78.3026 10.0904ZM78.3026 10.9131L77.9114 9.91555L77.9026 9.91911L78.3026 10.9131ZM72.3089 16.9067L73.2997 17.3147L73.3029 17.3067L72.3089 16.9067ZM71.4863 16.9067L72.4838 16.5155L72.4796 16.5051L71.4863 16.9067ZM65.4926 10.9261L65.892 9.93188L65.8838 9.92865L65.4926 10.9261ZM65.4926 10.1035L65.0926 9.10947L65.0847 9.11274L65.4926 10.1035ZM71.4863 4.10982L72.4803 4.50985L72.4837 4.50099L71.4863 4.10982ZM11.315 54.4968C11.9127 55.9819 12.8043 57.331 13.9363 58.463L15.4515 56.9478C14.5236 56.0199 13.7928 54.9141 13.3029 53.6968L11.315 54.4968ZM13.9363 58.463C15.0683 59.595 16.4174 60.4867 17.9026 61.0844L18.7026 59.0964C17.4852 58.6065 16.3794 57.8757 15.4515 56.9478L13.9363 58.463ZM17.8946 61.0811C18.0158 61.131 18.027 61.1509 17.9901 61.12C17.9657 61.0996 17.7306 60.8971 17.7306 60.5066C17.7306 60.1119 17.9701 59.907 17.9997 59.8829C18.0401 59.8499 18.0318 59.8684 17.9114 59.9156L18.6937 61.9105C18.9063 61.8272 19.1478 61.7118 19.3546 61.543C19.5507 61.3829 19.8735 61.0401 19.8735 60.5066C19.8735 59.9774 19.5552 59.6354 19.3643 59.4758C19.1608 59.3058 18.9223 59.1869 18.7105 59.0997L17.8946 61.0811ZM17.9026 59.9191C16.4174 60.5168 15.0683 61.4084 13.9363 62.5404L15.4515 64.0557C16.3794 63.1278 17.4852 62.3969 18.7026 61.907L17.9026 59.9191ZM13.9363 62.5404C12.8043 63.6725 11.9127 65.0215 11.315 66.5067L13.3029 67.3067C13.7928 66.0894 14.5236 64.9836 15.4515 64.0557L13.9363 62.5404ZM11.3182 66.4988C11.2683 66.6199 11.2484 66.6312 11.2793 66.5942C11.2997 66.5698 11.5022 66.3347 11.8927 66.3347C12.2874 66.3347 12.4923 66.5743 12.5165 66.6038C12.5495 66.6442 12.531 66.636 12.4837 66.5155L10.4888 67.2979C10.5722 67.5104 10.6875 67.7519 10.8564 67.9588C11.0164 68.1548 11.3592 68.4776 11.8927 68.4776C12.4219 68.4776 12.764 68.1593 12.9235 67.9684C13.0936 67.765 13.2124 67.5265 13.2997 67.3147L11.3182 66.4988ZM12.4796 66.5051C11.8803 65.0226 10.988 63.6763 9.85602 62.5469L8.34244 64.0637C9.27027 64.9895 10.0017 66.0931 10.4929 67.3083L12.4796 66.5051ZM9.85602 62.5469C8.72408 61.4174 7.37583 60.528 5.89202 59.9319L5.09324 61.9203C6.30949 62.4089 7.41462 63.1379 8.34244 64.0637L9.85602 62.5469ZM5.8838 59.9286C5.76336 59.8814 5.75511 59.8629 5.7955 59.8959C5.82508 59.92 6.06459 60.1249 6.06459 60.5197C6.06459 60.9102 5.82953 61.1127 5.80513 61.1331C5.76818 61.1639 5.77943 61.1441 5.90058 61.0942L5.08469 59.1127C4.87286 59.2 4.63437 59.3188 4.43093 59.4889C4.24004 59.6484 3.92174 59.9905 3.92174 60.5197C3.92174 61.0532 4.2445 61.396 4.44056 61.556C4.64745 61.7249 4.88893 61.8402 5.10147 61.9236L5.8838 59.9286ZM5.89265 61.0974C7.3778 60.4997 8.72688 59.6081 9.8589 58.4761L8.34367 56.9609C7.41578 57.8888 6.30997 58.6196 5.09262 59.1095L5.89265 61.0974ZM9.8589 58.4761C10.9909 57.3441 11.8825 55.995 12.4802 54.5098L10.4923 53.7098C10.0024 54.9272 9.27156 56.033 8.34367 56.9609L9.8589 58.4761ZM12.4837 54.501C12.531 54.3805 12.5495 54.3723 12.5165 54.4127C12.4923 54.4423 12.2874 54.6818 11.8927 54.6818C11.5022 54.6818 11.2997 54.4467 11.2793 54.4223C11.2484 54.3854 11.2683 54.3966 11.3182 54.5178L13.2997 53.7019C13.2124 53.49 13.0936 53.2516 12.9235 53.0481C12.764 52.8572 12.4219 52.5389 11.8927 52.5389C11.3592 52.5389 11.0164 52.8617 10.8564 53.0577C10.6875 53.2646 10.5722 53.5061 10.4888 53.7187L12.4837 54.501ZM71.315 4.49678C71.9127 5.98194 72.8043 7.33101 73.9363 8.46303L75.4515 6.9478C74.5236 6.01991 73.7928 4.9141 73.3029 3.69676L71.315 4.49678ZM73.9363 8.46303C75.0683 9.59505 76.4174 10.4867 77.9026 11.0844L78.7026 9.09645C77.4852 8.60653 76.3794 7.87569 75.4515 6.9478L73.9363 8.46303ZM77.8946 11.0811C78.0158 11.131 78.027 11.1509 77.9901 11.12C77.9657 11.0996 77.7306 10.8971 77.7306 10.5066C77.7306 10.1119 77.9701 9.90699 77.9997 9.88285C78.0401 9.84988 78.0318 9.86836 77.9114 9.91559L78.6937 11.9105C78.9063 11.8272 79.1478 11.7118 79.3546 11.543C79.5507 11.3829 79.8735 11.0401 79.8735 10.5066C79.8735 9.9774 79.5552 9.63535 79.3643 9.4758C79.1608 9.30577 78.9223 9.1869 78.7105 9.09968L77.8946 11.0811ZM77.9026 9.91911C76.4174 10.5168 75.0683 11.4084 73.9363 12.5404L75.4515 14.0557C76.3794 13.1278 77.4852 12.3969 78.7026 11.907L77.9026 9.91911ZM73.9363 12.5404C72.8043 13.6725 71.9127 15.0215 71.315 16.5067L73.3029 17.3067C73.7928 16.0894 74.5236 14.9835 75.4515 14.0557L73.9363 12.5404ZM71.3182 16.4988C71.2683 16.6199 71.2484 16.6312 71.2793 16.5942C71.2997 16.5698 71.5022 16.3347 71.8927 16.3347C72.2875 16.3347 72.4923 16.5743 72.5165 16.6038C72.5495 16.6442 72.531 16.636 72.4837 16.5155L70.4888 17.2979C70.5722 17.5104 70.6875 17.7519 70.8564 17.9588C71.0164 18.1548 71.3592 18.4776 71.8927 18.4776C72.4219 18.4776 72.764 18.1593 72.9235 17.9684C73.0936 17.765 73.2124 17.5265 73.2997 17.3147L71.3182 16.4988ZM72.4796 16.5051C71.8803 15.0226 70.988 13.6763 69.856 12.5469L68.3424 14.0637C69.2703 14.9895 70.0017 16.0931 70.4929 17.3083L72.4796 16.5051ZM69.856 12.5469C68.7241 11.4174 67.3758 10.528 65.892 9.93191L65.0932 11.9203C66.3095 12.4089 67.4146 13.1379 68.3424 14.0637L69.856 12.5469ZM65.8838 9.92865C65.7634 9.88141 65.7551 9.86294 65.7955 9.89591C65.8251 9.92004 66.0646 10.1249 66.0646 10.5197C66.0646 10.9102 65.8295 11.1127 65.8051 11.1331C65.7682 11.1639 65.7794 11.1441 65.9006 11.0942L65.0847 9.11274C64.8729 9.19996 64.6344 9.31883 64.4309 9.48886C64.24 9.6484 63.9217 9.99046 63.9217 10.5197C63.9217 11.0532 64.2445 11.396 64.4406 11.556C64.6474 11.7249 64.8889 11.8402 65.1015 11.9236L65.8838 9.92865ZM65.8926 11.0974C67.3778 10.4997 68.7269 9.60811 69.8589 8.47609L68.3437 6.96086C67.4158 7.88875 66.31 8.61959 65.0926 9.10951L65.8926 11.0974ZM69.8589 8.47609C70.9909 7.34407 71.8825 5.99499 72.4802 4.50983L70.4923 3.70981C70.0024 4.92716 69.2716 6.03297 68.3437 6.96086L69.8589 8.47609ZM72.4837 4.50099C72.531 4.38055 72.5495 4.3723 72.5165 4.41269C72.4923 4.44226 72.2875 4.68178 71.8927 4.68178C71.5022 4.68178 71.2997 4.44672 71.2793 4.42232C71.2484 4.38537 71.2683 4.39662 71.3182 4.51777L73.2997 3.70188C73.2124 3.49004 73.0936 3.25156 72.9235 3.04812C72.764 2.85723 72.4219 2.53892 71.8927 2.53892C71.3592 2.53892 71.0164 2.86168 70.8564 3.05775C70.6875 3.26463 70.5722 3.50611 70.4888 3.71866L72.4837 4.50099Z" fill="#FAF5F1" mask="url(#path-9-inside-1_24_12)"/>
</svg>
