<svg width="81" height="80" viewBox="0 0 81 80" fill="none" xmlns="http://www.w3.org/2000/svg">
<path d="M22.0498 50.5001C25.7998 61.7501 32.0498 65.5001 38.2998 65.5001C41.2967 65.5001 44.2935 64.6379 47.0148 62.5001M36.8998 25.9126C38.9955 28.9998 41.6879 31.6362 44.8183 33.6667C47.9487 35.6971 51.4539 37.0804 55.1273 37.7351C56.3637 37.9515 57.4844 38.5961 58.293 39.5561C59.1016 40.516 59.5466 41.73 59.5498 42.9851V43.0001C59.5498 49.2501 54.5498 50.5001 54.5498 50.5001C54.4364 50.8402 54.3207 51.1735 54.2029 51.5001" stroke="#FAF5F1" stroke-linecap="round" stroke-linejoin="round"/>
<path d="M34.5498 21.75C35.2068 23.2052 35.9933 24.5983 36.8998 25.9125C35.6632 29.0987 33.5877 31.891 30.8933 33.9936C28.199 36.0963 24.986 37.431 21.5948 37.8563C20.3417 38.0121 19.1886 38.6199 18.3518 39.5656C17.515 40.5112 17.052 41.7298 17.0498 42.9925V43C17.0498 49.25 22.0498 50.5 22.0498 50.5M47.0623 62.475C47.2498 74.35 52.0998 76.775 54.5498 78M22.0498 78C24.4998 76.775 29.3498 74.35 29.5373 62.475" stroke="#FAF5F1" stroke-linecap="round" stroke-linejoin="round"/>
<path d="M19.1873 38.8125C19.1623 38.65 19.1373 38.475 19.0998 38.3C18.5813 35.3109 18.3137 32.2837 18.2998 29.25C18.2998 19.25 27.0498 13 38.2998 13C49.5498 13 58.2998 19.25 58.2998 29.25C58.2866 32.4279 57.9938 35.5984 57.4248 38.725" stroke="#FAF5F1" stroke-linecap="round" stroke-linejoin="round"/>
<path d="M26.1749 15.9625C23.1124 7.325 30.1625 3 38.3 3C46.4375 3 53.4875 7.325 50.425 15.9625" stroke="#FAF5F1" stroke-linecap="round" stroke-linejoin="round"/>
<path d="M33.9248 56.75L33.9398 56.7675C33.9398 56.7675 35.0298 58 38.2998 58C41.5698 58 42.6598 56.7675 42.6598 56.7675L42.6748 56.75" stroke="#FAF5F1" stroke-linecap="round" stroke-linejoin="round"/>
<path d="M43.2848 44.2425L43.2998 44.25C43.2998 44.25 45.7998 46.75 49.5498 44.25H50.7998M33.3136 44.2425L33.2998 44.25C33.2998 44.25 30.7998 46.75 27.0498 44.25H25.7998M3.2998 63C4.88821 62.6267 6.31329 61.7498 7.3623 60.5C8.53036 58.5972 9.27633 56.4659 9.5498 54.25C9.82328 56.4659 10.5693 58.5972 11.7373 60.5C12.7863 61.7498 14.2114 62.6267 15.7998 63C14.2114 63.3733 12.7863 64.2502 11.7373 65.5C10.5693 67.4028 9.82328 69.5341 9.5498 71.75C9.25976 69.7363 8.63087 67.7862 7.6898 65.9825C6.66581 64.4594 5.09298 63.3909 3.2998 63ZM65.7998 36.75C67.3592 36.3792 68.7628 35.5278 69.8123 34.3162C70.7773 33.0662 71.4136 31.1813 72.0498 28C72.3233 30.2159 73.0693 32.3472 74.2373 34.25C75.2863 35.4998 76.7114 36.3767 78.2998 36.75C76.0773 37.4912 74.7323 38.2313 73.7461 40.0138C72.9137 41.7491 72.3421 43.5977 72.0498 45.5C71.7637 43.4142 71.095 41.3992 70.0773 39.5563C69.0398 38.1321 67.5193 37.1346 65.7998 36.75Z" stroke="#FAF5F1" stroke-linecap="round" stroke-linejoin="round"/>
<path d="M71.9569 78.6553L71.9569 78.6552L71.9534 78.6589C71.6399 78.9766 71.2235 79.1354 70.8015 79.1354C70.4024 79.1354 70.0108 78.9949 69.6933 78.7031L69.6932 78.703L54.0916 64.3772L57.6682 60.7726L72.0082 76.3936L72.0082 76.3937C72.2935 76.7043 72.4475 77.1132 72.4379 77.5348C72.4283 77.9564 72.256 78.3579 71.9569 78.6553ZM51.0932 61.4182L51.0946 61.4191L52.7567 62.5805L51.9505 63.3867C50.843 63.155 49.279 62.76 47.917 62.1668C47.1765 61.8443 46.5204 61.4737 46.0332 61.0569C45.5456 60.6397 45.2652 60.2098 45.1909 59.7689C45.0792 59.0875 45.334 58.2126 45.8725 57.2591C46.4019 56.3216 47.161 55.3875 47.9268 54.6216C48.6929 53.8555 49.6256 53.0966 50.5615 52.568C51.5137 52.0301 52.3869 51.777 53.0676 51.8912L53.068 51.8913C53.5113 51.9654 53.9438 52.2478 54.3633 52.7392C54.7821 53.2298 55.1542 53.8905 55.4774 54.6353C56.0711 56.003 56.4647 57.571 56.6918 58.6738L55.8894 59.4543L53.2445 55.6915L53.2445 55.6915L53.2428 55.6891C52.8947 55.1996 52.2169 55.0761 51.7208 55.4178L51.7208 55.4178L51.7143 55.4224C51.2234 55.7715 51.1022 56.4553 51.443 56.95L51.443 56.95L51.4456 56.9538L54.237 60.9327L52.3546 59.6187L52.3546 59.6187L52.3519 59.6168C51.8628 59.2799 51.1809 59.3855 50.828 59.8909C50.7454 60.0081 50.6865 60.1404 50.6549 60.2803C50.6231 60.4209 50.6194 60.5664 50.6439 60.7084C50.6684 60.8505 50.7207 60.9863 50.7978 61.1081C50.8749 61.2299 50.9753 61.3352 51.0932 61.4182Z" stroke="#FAF5F1" stroke-width="1.0625"/>
</svg>
