<svg width="81" height="80" viewBox="0 0 81 80" fill="none" xmlns="http://www.w3.org/2000/svg">
<path d="M9.18145 20.4864L9.18144 20.4865C8.01422 21.6537 7.08835 23.0395 6.45668 24.5646C6.28046 24.9901 6.1281 25.4241 6 25.8646C5.8719 25.4241 5.71954 24.9901 5.54332 24.5646C4.91165 23.0395 3.98578 21.6537 2.81856 20.4865L2.81855 20.4864L1.94802 19.6159C3.81904 18.9392 5.27747 17.4978 6.00035 15.7052C6.23991 16.2997 6.56266 16.8618 6.96246 17.3738C7.76408 18.4004 8.83653 19.1753 10.0522 19.6157L9.18145 20.4864ZM64.217 27.5253C63.9018 27.2668 63.5588 27.0491 63.1962 26.875C63.5588 26.7009 63.9018 26.4832 64.217 26.2247C65.124 25.481 65.7454 24.4459 65.9753 23.2956C65.9753 23.2956 65.9753 23.2955 65.9753 23.2955L66 23.1721L66.0247 23.2955C66.0247 23.2955 66.0247 23.2956 66.0247 23.2956C66.2546 24.4459 66.876 25.481 67.783 26.2247C68.0982 26.4832 68.4412 26.7009 68.8038 26.875C68.4412 27.0491 68.0982 27.2668 67.783 27.5253C66.876 28.269 66.2546 29.3041 66.0247 30.4543C66.0247 30.4544 66.0247 30.4545 66.0247 30.4545L66 30.5779L65.9753 30.4545C65.9753 30.4545 65.9753 30.4544 65.9753 30.4543C65.7454 29.3041 65.124 28.269 64.217 27.5253ZM5.46698 46.2753C5.15176 46.0168 4.80881 45.7991 4.44623 45.625C4.80881 45.4509 5.15176 45.2332 5.46698 44.9747C6.37404 44.231 6.99538 43.1959 7.22527 42.0457C7.22528 42.0456 7.22529 42.0455 7.22531 42.0455L7.25 41.9221L7.27469 42.0455C7.27471 42.0455 7.27472 42.0456 7.27473 42.0457C7.50462 43.1959 8.12596 44.231 9.03302 44.9747C9.34824 45.2332 9.69119 45.4509 10.0538 45.625C9.69119 45.7991 9.34824 46.0168 9.03302 46.2753C8.12596 47.019 7.50462 48.0541 7.27473 49.2043C7.27472 49.2044 7.27471 49.2045 7.27469 49.2045L7.25 49.3279L7.22531 49.2045C7.2253 49.2045 7.22529 49.2045 7.22529 49.2044C7.22528 49.2044 7.22528 49.2044 7.22527 49.2043C6.99538 48.0541 6.37404 47.019 5.46698 46.2753Z" stroke="#FAF5F1"/>
<path d="M62.5 41L61 37.5225C56.5763 26.4125 47.14 15.9313 39.75 3C29.75 20.5 16 33.5125 16 49.6663C16.0501 55.6937 18.4124 61.4719 22.5992 65.8081C26.7861 70.1443 32.478 72.7076 38.5 72.9688C39.8333 72.9792 42.6 72.9 43 72.5" stroke="#FAF5F1" stroke-linecap="round" stroke-linejoin="round"/>
<path d="M29.75 63.6787C27.4505 62.1333 25.5646 60.048 24.2572 57.6053C22.9497 55.1626 22.2606 52.4368 22.25 49.6663C22.2531 48.2685 22.3837 46.874 22.64 45.5M37.25 78C44.0205 76.7582 50.3057 73.6388 55.389 68.9975C60.4723 64.3562 64.1491 58.3799 66 51.75" stroke="#FAF5F1" stroke-linecap="round" stroke-linejoin="round"/>
<path d="M42.25 70.5C42.25 70.5 40.9692 66.3984 41 64.25C41 48 59.75 45.5 71 34.25C72.25 46.75 73.5 48 73.5 56.75C73.5 68 66 78 56 78C50.0875 78 46.4999 76.6967 45.1 75.6125" stroke="#FAF5F1" stroke-linecap="round" stroke-linejoin="round"/>
</svg>
