<svg width="81" height="80" viewBox="0 0 81 80" fill="none" xmlns="http://www.w3.org/2000/svg">
<g clip-path="url(#clip0_24_23)">
<path d="M45.0664 20.8335H31.7331C26.6705 20.8335 22.5664 24.9376 22.5664 30.0002V65.0002C22.5664 70.0628 26.6705 74.1668 31.7331 74.1668H45.0664C50.129 74.1668 54.2331 70.0628 54.2331 65.0002V30.0002C54.2331 24.9376 50.129 20.8335 45.0664 20.8335Z" stroke="#FAF5F1"/>
<path d="M43.2331 7.5H33.5664C33.0141 7.5 32.5664 7.94771 32.5664 8.5V19.8333C32.5664 20.3856 33.0141 20.8333 33.5664 20.8333H43.2331C43.7854 20.8333 44.2331 20.3856 44.2331 19.8333V8.5C44.2331 7.94772 43.7854 7.5 43.2331 7.5Z" stroke="#FAF5F1"/>
<path d="M26 9H32" stroke="#FAF5F1" stroke-linecap="round"/>
<path d="M36.5664 34.1665H23.5664C23.0141 34.1665 22.5664 34.6142 22.5664 35.1665V58.1665C22.5664 58.7188 23.0141 59.1665 23.5664 59.1665H36.5664C37.1187 59.1665 37.5664 58.7188 37.5664 58.1665V35.1665C37.5664 34.6142 37.1187 34.1665 36.5664 34.1665Z" stroke="#FAF5F1"/>
<path d="M8.58135 20.4864L8.58134 20.4865C7.41412 21.6537 6.48825 23.0395 5.85659 24.5646C5.68036 24.9901 5.528 25.4241 5.3999 25.8646C5.2718 25.4241 5.11944 24.9901 4.94322 24.5646C4.31156 23.0395 3.38568 21.6537 2.21846 20.4865L2.21846 20.4864L1.34792 19.6159C3.21894 18.9392 4.67737 17.4978 5.40026 15.7052C5.63981 16.2997 5.96257 16.8618 6.36237 17.3738C7.16398 18.4004 8.23643 19.1753 9.45209 19.6157L8.58135 20.4864ZM65.4246 30.4543C65.4246 30.4544 65.4246 30.4545 65.4246 30.4545L65.3999 30.5779L65.3752 30.4545C65.3752 30.4545 65.3752 30.4544 65.3752 30.4543C65.1453 29.3041 64.5239 28.269 63.6169 27.5253C63.3017 27.2668 62.9587 27.0491 62.5961 26.875C62.9587 26.7009 63.3017 26.4832 63.6169 26.2247C64.5239 25.481 65.1453 24.4459 65.3752 23.2956C65.3752 23.2956 65.3752 23.2955 65.3752 23.2955L65.3999 23.1721L65.4246 23.2955C65.4246 23.2955 65.4246 23.2956 65.4246 23.2956C65.6545 24.4459 66.2759 25.481 67.1829 26.2247C67.4981 26.4832 67.8411 26.7009 68.2037 26.875C67.8411 27.0491 67.4981 27.2668 67.1829 27.5253C66.2759 28.269 65.6545 29.3041 65.4246 30.4543ZM4.86688 46.2753C4.55166 46.0168 4.20871 45.7991 3.84613 45.625C4.20871 45.4509 4.55166 45.2332 4.86688 44.9747C5.77394 44.231 6.39528 43.1959 6.62517 42.0457C6.62519 42.0456 6.6252 42.0455 6.62521 42.0455L6.6499 41.9221L6.6746 42.0455C6.67461 42.0455 6.67462 42.0456 6.67463 42.0457C6.90452 43.1959 7.52586 44.231 8.43292 44.9747C8.74814 45.2332 9.09109 45.4509 9.45367 45.625C9.09109 45.7991 8.74814 46.0168 8.43292 46.2753C7.52586 47.019 6.90452 48.0541 6.67463 49.2043C6.67462 49.2044 6.67461 49.2045 6.6746 49.2045L6.6499 49.3279L6.62521 49.2045C6.6252 49.2045 6.6252 49.2045 6.62519 49.2044C6.62518 49.2044 6.62518 49.2044 6.62517 49.2043C6.39528 48.0541 5.77394 47.019 4.86688 46.2753ZM70.8566 62.0646C70.6804 62.4901 70.528 62.9241 70.3999 63.3646C70.2718 62.9241 70.1194 62.4901 69.9432 62.0646C69.3116 60.5395 68.3857 59.1537 67.2185 57.9865L66.3479 57.1159C68.2189 56.4392 69.6774 54.9978 70.4003 53.2052C70.6398 53.7997 70.9626 54.3618 71.3624 54.8738C72.164 55.9004 73.2364 56.6753 74.4521 57.1157L73.5813 57.9864C72.4141 59.1537 71.4883 60.5395 70.8566 62.0646Z" stroke="#FAF5F1"/>
</g>
<defs>
<clipPath id="clip0_24_23">
<rect width="80" height="80" fill="white" transform="translate(0.799805)"/>
</clipPath>
</defs>
</svg>
