<svg width="80" height="80" viewBox="0 0 80 80" fill="none" xmlns="http://www.w3.org/2000/svg">
<path d="M4.81241 66.2503L19.677 33.0909C19.8382 32.7314 20.1955 32.5 20.5895 32.5H27.7356H34.8816C35.2757 32.5 35.633 32.7314 35.7942 33.0909L50.6587 66.2503C53.3774 72.315 48.9402 79.1667 42.2941 79.1667H13.1771C6.53091 79.1667 2.0938 72.315 4.81241 66.2503Z" stroke="#FAF5F1"/>
<path d="M20.2354 32.5V23.5C20.2354 22.9477 20.6831 22.5 21.2354 22.5H34.2354C34.7876 22.5 35.2354 22.9477 35.2354 23.5V32.6667" stroke="#FAF5F1"/>
<path d="M37.5685 17.5H17.9019C17.3496 17.5 16.9019 17.9477 16.9019 18.5V21.5C16.9019 22.0523 17.3496 22.5 17.9019 22.5H37.5685C38.1208 22.5 38.5685 22.0523 38.5685 21.5V18.5C38.5685 17.9477 38.1208 17.5 37.5685 17.5Z" stroke="#FAF5F1"/>
<path d="M13.5688 45.8334C16.6243 44.4446 23.4022 41.8334 26.0688 42.5001C29.4022 43.3334 32.7355 50.8334 40.2355 44.1667" stroke="#FAF5F1"/>
<path d="M51.9022 20.8337C53.7431 20.8337 55.2355 19.3413 55.2355 17.5003C55.2355 15.6594 53.7431 14.167 51.9022 14.167C50.0612 14.167 48.5688 15.6594 48.5688 17.5003C48.5688 19.3413 50.0612 20.8337 51.9022 20.8337Z" stroke="#FAF5F1"/>
<path d="M35.2352 7.50016C37.0761 7.50016 38.5685 6.00778 38.5685 4.16683C38.5685 2.32588 37.0761 0.833496 35.2352 0.833496C33.3942 0.833496 31.9019 2.32588 31.9019 4.16683C31.9019 6.00778 33.3942 7.50016 35.2352 7.50016Z" stroke="#FAF5F1"/>
</svg>
