<svg width="60" height="61" viewBox="0 0 60 61" fill="none" xmlns="http://www.w3.org/2000/svg">
<rect width="60" height="60" transform="translate(0 0.064209)" fill="#F6EBE7"/>
<path d="M30 17.3975V30.0642H39.5M49 30.0642C49 32.5593 48.5086 35.03 47.5537 37.3352C46.5989 39.6404 45.1993 41.7349 43.435 43.4992C41.6707 45.2636 39.5762 46.6631 37.271 47.6179C34.9658 48.5728 32.4951 49.0642 30 49.0642C27.5049 49.0642 25.0342 48.5728 22.729 47.6179C20.4238 46.6631 18.3293 45.2636 16.565 43.4992C14.8007 41.7349 13.4011 39.6404 12.4463 37.3352C11.4914 35.03 11 32.5593 11 30.0642C11 25.0251 13.0018 20.1924 16.565 16.6292C20.1282 13.066 24.9609 11.0642 30 11.0642C35.0391 11.0642 39.8718 13.066 43.435 16.6292C46.9982 20.1924 49 25.0251 49 30.0642Z" stroke="#9F2B2B" stroke-linecap="round" stroke-linejoin="round"/>
</svg>
