<svg width="60" height="61" viewBox="0 0 60 61" fill="none" xmlns="http://www.w3.org/2000/svg">
<path d="M18.3945 20.1208C18.3945 19.2025 19.1576 18.4583 20.0992 18.4583H39.9018C40.8434 18.4583 41.6065 19.2025 41.6065 20.1208V40.0076C41.6065 40.9259 40.8434 41.6702 39.9018 41.6702H20.0992C19.1576 41.6702 18.3945 40.9259 18.3945 40.0076V20.1208ZM25.5656 37.8895V27.4079H22.0823V37.8895H25.5656ZM23.8247 25.976C25.0389 25.976 25.7948 25.1723 25.7948 24.1655C25.773 23.1369 25.0404 22.355 23.8479 22.355C22.6554 22.355 21.8763 23.1384 21.8763 24.1655C21.8763 25.1723 22.6322 25.976 23.8015 25.976H23.8247ZM30.9449 37.8895V32.0358C30.9449 31.7224 30.9681 31.4091 31.061 31.1856C31.312 30.5604 31.885 29.9119 32.8483 29.9119C34.109 29.9119 34.6124 30.8723 34.6124 32.2824V37.8895H38.0957V31.8776C38.0957 28.657 36.378 27.1598 34.0858 27.1598C32.2375 27.1598 31.4092 28.1753 30.9449 28.8906V28.9268H30.9217L30.9449 28.8906V27.4079H27.4631C27.5067 28.3915 27.4631 37.8895 27.4631 37.8895H30.9449Z" fill="#9F2B2B"/>
</svg>
