<svg width="16" height="16" viewBox="0 0 16 16" fill="none" xmlns="http://www.w3.org/2000/svg">
<path d="M5.25033 6.20833H10.7503M5.25033 8.04167H8.00033M2.04199 8.96445C2.04199 9.94222 2.72827 10.7941 3.69627 10.9365C4.38621 11.0379 5.08349 11.1156 5.7881 11.1681C6.00199 11.184 6.19755 11.2964 6.31671 11.4743L8.00033 14L9.68394 11.4743C9.743 11.3864 9.8213 11.3132 9.9129 11.2602C10.0045 11.2071 10.107 11.1756 10.2125 11.1681C10.9124 11.1159 11.6101 11.0386 12.3044 10.9365C13.2724 10.7941 13.9587 9.94283 13.9587 8.96383V5.28617C13.9587 4.30717 13.2724 3.45589 12.3044 3.3135C10.8792 3.10433 9.44073 2.99955 8.00033 3C6.53855 3 5.10121 3.10695 3.69627 3.3135C2.72827 3.45589 2.04199 4.30778 2.04199 5.28617V8.96383V8.96445Z" stroke="#505050" stroke-width="0.8" stroke-linecap="round" stroke-linejoin="round"/>
</svg>
