<svg width="16" height="16" viewBox="0 0 16 16" fill="none" xmlns="http://www.w3.org/2000/svg">
<path d="M1.5 4.26923C1.5 9.36708 5.63292 13.5 10.7308 13.5H12.1154C12.4826 13.5 12.8348 13.3541 13.0945 13.0945C13.3541 12.8348 13.5 12.4826 13.5 12.1154V11.2711C13.5 10.9535 13.284 10.6766 12.9757 10.5997L10.2538 9.91908C9.98308 9.85138 9.69877 9.95292 9.532 10.1757L8.93508 10.9714C8.76154 11.2028 8.46185 11.3049 8.19046 11.2052C7.183 10.8348 6.26809 10.2499 5.5091 9.4909C4.7501 8.73191 4.16515 7.817 3.79477 6.80954C3.69508 6.53815 3.79723 6.23846 4.02862 6.06492L4.82431 5.468C5.04769 5.30123 5.14862 5.01631 5.08092 4.74615L4.40031 2.02431C4.36285 1.87458 4.27644 1.74166 4.1548 1.64667C4.03316 1.55167 3.88326 1.50005 3.72892 1.5H2.88462C2.51739 1.5 2.16521 1.64588 1.90554 1.90554C1.64588 2.16521 1.5 2.51739 1.5 2.88462V4.26923Z" stroke="#505050" stroke-width="0.8" stroke-linecap="round" stroke-linejoin="round"/>
</svg>
