<svg width="80" height="80" viewBox="0 0 80 80" fill="none" xmlns="http://www.w3.org/2000/svg">
<g clip-path="url(#clip0_54_57)">
<path d="M39.9989 69.0003L40.001 69.0003C40.2194 69.0005 40.4351 68.9527 40.6329 68.8604C40.8308 68.768 41.0059 68.6332 41.1459 68.4657L41.1478 68.4635C43.8118 65.2941 45.583 62.4229 47 59.0002L48 59.5002C46.54 63.0269 44.6366 65.8669 41.9133 69.1069C41.6793 69.3869 41.3866 69.6121 41.056 69.7665C40.7254 69.9208 40.3648 70.0006 40 70.0003C39.6351 70.0006 39.2745 69.9208 38.9439 69.7665C38.6133 69.6121 38.3206 69.3869 38.0866 69.1069C35.3666 65.8669 33.2466 62.4369 31.7866 58.9103L32.7108 58.5283C34.1277 61.9506 36.1912 65.2938 38.8525 68.464L38.854 68.4657C38.994 68.6332 39.1691 68.768 39.367 68.8604C39.5648 68.9527 39.7805 69.0005 39.9989 69.0003Z" fill="#9F2B2B"/>
<path d="M79.0899 54.8901C79.375 54.6563 79.6046 54.3621 79.7621 54.0288C79.9197 53.6954 80.0012 53.3313 80.0009 52.9626C80.0006 52.5939 79.9184 52.2299 79.7603 51.8969C79.6022 51.5638 79.3721 51.27 79.0866 51.0367C72.7066 45.7767 70.6266 43.4233 63.9966 43L62.9966 44C69.3568 44.4139 72.2003 46.6553 78.4504 51.8083L78.4538 51.811C78.6246 51.9506 78.7623 52.1264 78.8569 52.3257C78.9515 52.525 79.0007 52.7428 79.0009 52.9635C79.0011 53.1841 78.9523 53.402 78.858 53.6014C78.7637 53.8009 78.6264 53.9769 78.4558 54.1168L78.4531 54.119C71.5745 59.7999 64.7288 62.5701 57.9566 62.5734C55.1821 62.5733 52.3472 61.6272 49.4233 60.1211C46.4979 58.6142 43.5603 56.589 40.5697 54.4973L39.9967 54.0965L39.4236 54.4971C33.0293 58.9671 26.6844 61.4339 20.4142 61.5247C14.1621 61.6153 7.8646 59.3455 1.542 54.1206C1.37257 53.9791 1.23622 53.8022 1.14258 53.6022C1.04868 53.4018 1 53.1831 1 52.9617C1 52.7403 1.04868 52.5217 1.14258 52.3212C1.23616 52.1214 1.37238 51.9446 1.54164 51.8031C7.79601 46.6473 10.7948 44.4081 16.9966 44L16.4966 43C10.9966 43 7.28326 45.7734 0.903255 51.0334C0.620549 51.2689 0.393095 51.5638 0.237003 51.897C0.0809112 52.2303 0 52.5937 0 52.9617C0 53.3297 0.0809112 53.6932 0.237003 54.0264C0.393095 54.3597 0.620549 54.6545 0.903255 54.8901C13.8499 65.59 26.9933 64.4067 39.9966 55.3167C45.9633 59.4901 51.9599 63.5734 57.9566 63.5734C65.0199 63.5701 72.0833 60.6767 79.0899 54.8901Z" fill="#9F2B2B"/>
<path d="M30 28.5C25.05 23.9267 21.1401 23.7367 12.5135 22.9501C12.1483 22.9186 11.7808 22.9673 11.4364 23.0929C11.0921 23.2184 10.7795 23.4178 10.5203 23.6769C10.2612 23.936 10.0618 24.2487 9.93628 24.593C9.81073 24.9373 9.76198 25.3049 9.79348 25.6701C11.4435 43.7267 21.5168 53.7267 39.7401 55.4001L40.0001 55.4101L40.2701 55.4001C58.4901 53.7267 68.5668 43.7267 70.2168 25.6701C70.2489 25.3048 70.2006 24.9369 70.0752 24.5924C69.9499 24.2478 69.7505 23.9349 69.4913 23.6756C69.232 23.4163 68.9191 23.217 68.5745 23.0917C68.2299 22.9663 67.8621 22.918 67.4968 22.9501C58.8701 23.7367 54.4467 24.4267 49.5 29L50 30C54.7435 25.6145 59.1165 24.7187 67.5858 23.9461C67.8051 23.9271 68.0258 23.9562 68.2326 24.0314C68.4399 24.1068 68.6282 24.2267 68.7842 24.3827C68.9401 24.5387 69.0601 24.7269 69.1355 24.9342C69.2108 25.1413 69.2399 25.3623 69.2207 25.5817C68.4106 34.4419 65.546 41.211 60.7527 45.9691C55.9628 50.7239 49.1401 53.5767 40.2058 54.4018L40.0008 54.4093L39.8052 54.4018C30.8689 53.5769 24.046 50.724 19.2563 45.9691C14.4635 41.2111 11.5997 34.4421 10.7896 25.5819C10.771 25.3628 10.8004 25.1422 10.8758 24.9356C10.9514 24.7283 11.0714 24.54 11.2274 24.384C11.3835 24.228 11.5717 24.1079 11.779 24.0323C11.9857 23.957 12.2063 23.9276 12.4254 23.9462C20.8941 24.7189 24.7532 25.1144 29.5 29.5L30 28.5Z" fill="#9F2B2B"/>
<path fill-rule="evenodd" clip-rule="evenodd" d="M41.5642 10.8475C53.2142 24.7208 53.2142 40.6342 41.5642 54.5075C41.3302 54.7875 41.0375 55.0127 40.7069 55.167C40.3763 55.3214 40.0157 55.4012 39.6508 55.4008C39.2861 55.4005 38.9258 55.3204 38.5952 55.1661C38.2647 55.0118 37.9719 54.787 37.7375 54.5075C26.0875 40.6342 26.0875 24.7208 37.7375 10.8475C38.6875 9.7175 40.6142 9.7175 41.5642 10.8475ZM41.3835 11.8102C51.9388 25.0721 51.9388 40.2841 41.3835 53.546C41.1715 53.8137 40.9064 54.0289 40.6068 54.1765C40.3073 54.3241 39.9806 54.4004 39.65 54.4C39.3195 54.3997 38.9931 54.3231 38.6936 54.1756C38.3941 54.0281 38.1289 53.8132 37.9165 53.546C27.3612 40.2841 27.3612 25.0721 37.9165 11.8102C38.7772 10.7299 40.5228 10.7299 41.3835 11.8102Z" fill="#9F2B2B"/>
<path d="M8.68145 7.86145L8.68144 7.86146C7.51422 9.02874 6.58835 10.4145 5.95668 11.9396C5.78046 12.3651 5.6281 12.7991 5.5 13.2396C5.3719 12.7991 5.21954 12.3651 5.04332 11.9396C4.41165 10.4145 3.48578 9.02874 2.31856 7.86146L2.31855 7.86145L1.44802 6.99091C3.31904 6.31422 4.77747 4.87277 5.50035 3.08016C5.73991 3.67466 6.06266 4.23683 6.46246 4.74881C7.26408 5.77536 8.33653 6.55031 9.55218 6.99071L8.68145 7.86145ZM63.717 14.9003C63.4018 14.6418 63.0588 14.4241 62.6962 14.25C63.0588 14.0759 63.4018 13.8582 63.717 13.5997C64.624 12.856 65.2454 11.8209 65.4753 10.6706C65.4753 10.6706 65.4753 10.6705 65.4753 10.6705L65.5 10.5471L65.5247 10.6705C65.5247 10.6705 65.5247 10.6706 65.5247 10.6706C65.7546 11.8209 66.376 12.856 67.283 13.5997C67.5982 13.8582 67.9412 14.0759 68.3038 14.25C67.9412 14.4241 67.5982 14.6418 67.283 14.9003C66.376 15.644 65.7546 16.6791 65.5247 17.8293C65.5247 17.8294 65.5247 17.8295 65.5247 17.8295L65.5 17.9529L65.4753 17.8295C65.4753 17.8295 65.4753 17.8294 65.4753 17.8293C65.2454 16.6791 64.624 15.644 63.717 14.9003ZM16.7747 76.5795L16.75 76.7029L16.7253 76.5795C16.7253 76.5795 16.7253 76.5794 16.7253 76.5793C16.4954 75.4291 15.874 74.394 14.967 73.6503C14.6518 73.3918 14.3088 73.1741 13.9462 73C14.3088 72.8259 14.6518 72.6082 14.967 72.3497C15.874 71.606 16.4954 70.5709 16.7253 69.4207C16.7253 69.4206 16.7253 69.4205 16.7253 69.4205L16.75 69.2971L16.7747 69.4205C16.7747 69.4205 16.7747 69.4206 16.7747 69.4207C17.0046 70.5709 17.626 71.606 18.533 72.3497C18.8482 72.6082 19.1912 72.8259 19.5538 73C19.1912 73.1741 18.8482 73.3918 18.533 73.6503C17.626 74.394 17.0046 75.4291 16.7747 76.5793C16.7747 76.5794 16.7747 76.5795 16.7747 76.5795Z" stroke="#9F2B2B"/>
</g>
<defs>
<clipPath id="clip0_54_57">
<rect width="80" height="80" fill="white"/>
</clipPath>
</defs>
</svg>
