<svg width="18" height="18" viewBox="0 0 18 18" fill="none" xmlns="http://www.w3.org/2000/svg">
<path d="M11.3688 16.3125V9.9625H13.5687V16.3125C13.5687 16.9166 13.0728 17.4125 12.4688 17.4125C11.8647 17.4125 11.3688 16.9166 11.3688 16.3125Z" stroke="#505050" stroke-width="0.8"/>
<path d="M11.0167 6.8375H13.9215L13.7967 7.92958L13.7959 7.93694L13.7953 7.94432L13.6218 10.2H11.3165L11.143 7.94432L11.1424 7.93694L11.1416 7.92958L11.0167 6.8375Z" stroke="#505050" stroke-width="0.8"/>
<path d="M14.1035 7.07514H10.8914L9.43075 4.34854C11.0281 2.411 13.9632 2.43191 15.5565 4.33066L14.1035 7.07514Z" stroke="#505050" stroke-width="0.8"/>
<path d="M2.15625 11.8125H6.28125C6.39375 11.8125 6.46875 11.8875 6.46875 12V17.25C6.46875 17.3625 6.39375 17.4375 6.28125 17.4375H2.15625C2.04375 17.4375 1.96875 17.3625 1.96875 17.25V12C1.96875 11.8875 2.04375 11.8125 2.15625 11.8125Z" stroke="#505050" stroke-width="0.8"/>
<path d="M2.53149 5.4375H5.90649C6.01899 5.4375 6.09399 5.5125 6.09399 5.625V11.625C6.09399 11.7375 6.01899 11.8125 5.90649 11.8125H2.53149C2.41899 11.8125 2.34399 11.7375 2.34399 11.625V5.625C2.34399 5.5125 2.41899 5.4375 2.53149 5.4375Z" stroke="#505050" stroke-width="0.8"/>
<path d="M5.34375 5.43748H3.09375V3.3375C3.09375 3.075 3.13125 2.775 3.39375 2.5125C3.65625 2.25 4.10625 1.9875 5.00625 1.875H5.04375C5.04375 1.875 5.08125 1.9125 5.11875 1.9875C5.19375 2.1 5.23125 2.325 5.26875 2.625C5.34375 3.225 5.34375 4.12498 5.34375 5.43748Z" stroke="#505050" stroke-width="0.8"/>
</svg>
