<svg width="80" height="80" viewBox="0 0 80 80" fill="none" xmlns="http://www.w3.org/2000/svg">
<path d="M21.25 49.9996C25 61.2496 31.25 64.9996 37.5 64.9996C43.75 64.9996 50 61.2496 53.75 49.9996C53.75 49.9996 58.75 48.7496 58.75 42.4996V42.4846C58.7468 41.2295 58.3018 40.0155 57.4932 39.0556C56.6846 38.0957 55.5638 37.451 54.3275 37.2346C50.6541 36.5799 47.1489 35.1966 44.0185 33.1662C40.888 31.1357 38.1957 28.4993 36.1 25.4121" stroke="#9F2B2B" stroke-linecap="round" stroke-linejoin="round"/>
<path d="M33.75 21.25C34.4069 22.7052 35.1934 24.0983 36.1 25.4125C34.8634 28.5987 32.7879 31.391 30.0935 33.4936C27.3991 35.5963 24.1862 36.931 20.795 37.3563C19.5419 37.5121 18.3888 38.1199 17.552 39.0656C16.7152 40.0112 16.2522 41.2298 16.25 42.4925V42.5C16.25 48.75 21.25 50 21.25 50M46.2625 61.975C46.45 73.85 51.3 76.275 53.75 77.5M21.25 77.5C23.7 76.275 28.55 73.85 28.7375 61.975" stroke="#9F2B2B" stroke-linecap="round" stroke-linejoin="round"/>
<path d="M18.3875 38.3125C18.3625 38.15 18.3375 37.975 18.3 37.8C17.7815 34.8109 17.5139 31.7837 17.5 28.75C17.5 18.75 26.25 12.5 37.5 12.5C48.75 12.5 57.5 18.75 57.5 28.75C57.4868 31.9279 57.194 35.0984 56.625 38.225" stroke="#9F2B2B" stroke-linecap="round" stroke-linejoin="round"/>
<path d="M25.3749 15.4625C22.3124 6.825 29.3624 2.5 37.4999 2.5C45.6374 2.5 52.6874 6.825 49.6249 15.4625" stroke="#9F2B2B" stroke-linecap="round" stroke-linejoin="round"/>
<path d="M33.125 56.25L33.14 56.2675C33.14 56.2675 34.23 57.5 37.5 57.5C40.77 57.5 41.86 56.2675 41.86 56.2675L41.875 56.25" stroke="#9F2B2B" stroke-linecap="round" stroke-linejoin="round"/>
<path d="M42.485 43.7425L42.5 43.75C42.5 43.75 45 46.25 48.75 43.75H50M32.5137 43.7425L32.5 43.75C32.5 43.75 30 46.25 26.25 43.75H25M2.5 62.5C4.08841 62.1267 5.51349 61.2498 6.5625 60C7.73055 58.0972 8.47653 55.9659 8.75 53.75C9.02347 55.9659 9.76945 58.0972 10.9375 60C11.9865 61.2498 13.4116 62.1267 15 62.5C13.4116 62.8733 11.9865 63.7502 10.9375 65C9.76945 66.9028 9.02347 69.0341 8.75 71.25C8.45995 69.2363 7.83107 67.2862 6.89 65.4825C5.86601 63.9594 4.29318 62.8909 2.5 62.5ZM65 36.25C66.5594 35.8792 67.963 35.0278 69.0125 33.8162C69.9775 32.5662 70.6137 30.6813 71.25 27.5C71.5235 29.7159 72.2694 31.8472 73.4375 33.75C74.4865 34.9998 75.9116 35.8767 77.5 36.25C75.2775 36.9912 73.9325 37.7313 72.9462 39.5138C72.1139 41.2491 71.5423 43.0977 71.25 45C70.9639 42.9142 70.2952 40.8992 69.2775 39.0563C68.24 37.6321 66.7195 36.6346 65 36.25Z" stroke="#9F2B2B" stroke-linecap="round" stroke-linejoin="round"/>
</svg>
