<svg width="80" height="80" viewBox="0 0 80 80" fill="none" xmlns="http://www.w3.org/2000/svg">
<path d="M10.6814 9.86145L10.6814 9.86146C9.51422 11.0287 8.58835 12.4145 7.95668 13.9396C7.78046 14.3651 7.6281 14.7991 7.5 15.2396C7.3719 14.7991 7.21954 14.3651 7.04332 13.9396C6.41165 12.4145 5.48578 11.0287 4.31856 9.86146L4.31855 9.86145L3.44802 8.99091C5.31904 8.31422 6.77747 6.87277 7.50035 5.08016C7.73991 5.67466 8.06266 6.23683 8.46246 6.74881C9.26408 7.77536 10.3365 8.55031 11.5522 8.99071L10.6814 9.86145ZM67.5247 19.8293C67.5247 19.8294 67.5247 19.8295 67.5247 19.8295L67.5 19.9529L67.4753 19.8295C67.4753 19.8295 67.4753 19.8294 67.4753 19.8293C67.2454 18.6791 66.624 17.644 65.717 16.9003C65.4018 16.6418 65.0588 16.4241 64.6962 16.25C65.0588 16.0759 65.4018 15.8582 65.717 15.5997C66.624 14.856 67.2454 13.8209 67.4753 12.6706C67.4753 12.6706 67.4753 12.6705 67.4753 12.6705L67.5 12.5471L67.5247 12.6705C67.5247 12.6705 67.5247 12.6706 67.5247 12.6706C67.7546 13.8209 68.376 14.856 69.283 15.5997C69.5982 15.8582 69.9412 16.0759 70.3038 16.25C69.9412 16.4241 69.5982 16.6418 69.283 16.9003C68.376 17.644 67.7546 18.6791 67.5247 19.8293ZM6.96698 35.6503C6.65176 35.3918 6.30881 35.1741 5.94624 35C6.30881 34.8259 6.65176 34.6082 6.96698 34.3497C7.87404 33.606 8.49538 32.5709 8.72527 31.4207C8.72528 31.4206 8.72529 31.4205 8.72531 31.4205L8.75 31.2971L8.77469 31.4205C8.77471 31.4205 8.77472 31.4206 8.77473 31.4207C9.00462 32.5709 9.62596 33.606 10.533 34.3497C10.8482 34.6082 11.1912 34.8259 11.5538 35C11.1912 35.1741 10.8482 35.3918 10.533 35.6503C9.62596 36.394 9.00462 37.4291 8.77473 38.5793C8.77472 38.5794 8.77471 38.5795 8.77469 38.5795L8.75 38.7029L8.72531 38.5795C8.7253 38.5795 8.72529 38.5795 8.72529 38.5794C8.72528 38.5794 8.72528 38.5794 8.72527 38.5793C8.49538 37.4291 7.87404 36.394 6.96698 35.6503ZM22.3517 31.5586L22.3517 31.5585L23.558 21.091L23.558 21.0905C23.9405 17.7411 25.5777 14.6609 28.1399 12.47L28.1403 12.4697C30.5651 10.3929 33.6523 9.25095 36.845 9.25C36.8451 9.25 36.8451 9.25 36.8451 9.25H43.1562C46.3457 9.25 49.4377 10.3936 51.8596 12.4696L51.86 12.47C54.4221 14.661 56.0592 17.7411 56.442 21.0905L56.442 21.091L57.6495 31.5584C57.6495 31.5585 57.6495 31.5585 57.6495 31.5585C58.8449 41.942 59.4624 52.3838 59.4992 62.8356C58.4833 63.5189 57.4291 64.1433 56.342 64.7059L55.4995 46.171L55.4768 45.6715L54.9772 45.6943L52.4797 45.808L51.9803 45.8308L52.003 46.3302L52.9078 66.2312C51.2057 66.8667 49.4518 67.3536 47.6658 67.6862L46.7494 48.6672L46.7254 48.1678L46.226 48.1918L43.7285 48.3118L43.229 48.3358L43.2531 48.8353L44.1824 68.1448C43.3711 68.2089 42.5604 68.25 41.7463 68.25L38.255 68.25C38.2545 68.25 38.254 68.25 38.2535 68.25C37.4404 68.2459 36.6278 68.211 35.8175 68.1455L36.2707 58.7297L36.7469 48.834L36.771 48.3346L36.2715 48.3106L33.774 48.1906L33.2746 48.1666L33.2506 48.6659L32.3342 67.6849C30.5482 67.3523 28.7943 66.8655 27.0922 66.2299L27.997 46.329L28.0197 45.8295L27.5202 45.8068L25.0227 45.693L24.5232 45.6703L24.5005 46.1698L23.658 64.7046C22.5709 64.1421 21.5167 63.5176 20.5008 62.8343C20.5367 52.4185 21.1578 41.8995 22.3517 31.5586ZM62.2688 65.1739L62.269 65.1737C62.7271 64.845 63 64.3152 63 63.75C63 62.6501 62.9788 61.5446 62.9576 60.4443C63.7139 61.3524 64.3341 62.3687 64.7966 63.4613C65.426 64.9487 65.7502 66.5473 65.75 68.1624V75.75H14.25V68.1625C14.25 65.2902 15.2633 62.5872 17.0424 60.4483C17.0212 61.547 17 62.6513 17 63.75C17 64.0286 17.0665 64.3033 17.194 64.551C17.3214 64.7985 17.506 65.012 17.7324 65.1738C23.7146 69.4631 30.8937 71.7635 38.2547 71.75H41.7466C49.1076 71.7634 56.2865 69.4629 62.2688 65.1739ZM72.9567 51.4396C72.7805 51.8651 72.6281 52.2991 72.5 52.7396C72.3719 52.2991 72.2195 51.8651 72.0433 51.4396C71.4117 49.9145 70.4858 48.5287 69.3186 47.3615L68.448 46.4909C70.319 45.8142 71.7775 44.3728 72.5004 42.5802C72.7399 43.1747 73.0627 43.7368 73.4625 44.2488C74.2641 45.2754 75.3365 46.0503 76.5522 46.4907L75.6814 47.3614C74.5142 48.5287 73.5883 49.9145 72.9567 51.4396Z" stroke="#9F2B2B"/>
</svg>
