<svg width="80" height="82" viewBox="0 0 80 82" fill="none" xmlns="http://www.w3.org/2000/svg">
<path d="M21.25 49.9996C25 61.2496 31.25 64.9996 37.5 64.9996C40.4969 64.9996 43.4937 64.1374 46.215 61.9996M36.1 25.4121C38.1957 28.4993 40.888 31.1357 44.0185 33.1662C47.1489 35.1966 50.6541 36.5799 54.3275 37.2346C55.5638 37.451 56.6846 38.0957 57.4932 39.0556C58.3018 40.0155 58.7468 41.2295 58.75 42.4846V42.4996C58.75 48.7496 53.75 49.9996 53.75 49.9996C53.6366 50.3398 53.5209 50.6731 53.4031 50.9996" stroke="#9F2B2B" stroke-linecap="round" stroke-linejoin="round"/>
<path d="M33.75 21.25C34.4069 22.7052 35.1934 24.0983 36.1 25.4125C34.8634 28.5987 32.7879 31.391 30.0935 33.4936C27.3991 35.5963 24.1862 36.931 20.795 37.3563C19.5419 37.5121 18.3888 38.1199 17.552 39.0656C16.7152 40.0112 16.2522 41.2298 16.25 42.4925V42.5C16.25 48.75 21.25 50 21.25 50M46.2625 61.975C46.45 73.85 51.3 76.275 53.75 77.5M21.25 77.5C23.7 76.275 28.55 73.85 28.7375 61.975" stroke="#9F2B2B" stroke-linecap="round" stroke-linejoin="round"/>
<path d="M18.3875 38.3125C18.3625 38.15 18.3375 37.975 18.3 37.8C17.7815 34.8109 17.5139 31.7837 17.5 28.75C17.5 18.75 26.25 12.5 37.5 12.5C48.75 12.5 57.5 18.75 57.5 28.75C57.4868 31.9279 57.194 35.0984 56.625 38.225" stroke="#9F2B2B" stroke-linecap="round" stroke-linejoin="round"/>
<path d="M25.375 15.4625C22.3125 6.825 29.3625 2.5 37.5 2.5C45.6375 2.5 52.6875 6.825 49.625 15.4625" stroke="#9F2B2B" stroke-linecap="round" stroke-linejoin="round"/>
<path d="M33.125 56.25L33.14 56.2675C33.14 56.2675 34.23 57.5 37.5 57.5C40.77 57.5 41.86 56.2675 41.86 56.2675L41.875 56.25" stroke="#9F2B2B" stroke-linecap="round" stroke-linejoin="round"/>
<path d="M42.485 43.7425L42.5 43.75C42.5 43.75 45 46.25 48.75 43.75H50M32.5137 43.7425L32.5 43.75C32.5 43.75 30 46.25 26.25 43.75H25M2.5 62.5C4.08841 62.1267 5.51349 61.2498 6.5625 60C7.73055 58.0972 8.47653 55.9659 8.75 53.75C9.02347 55.9659 9.76945 58.0972 10.9375 60C11.9865 61.2498 13.4116 62.1267 15 62.5C13.4116 62.8733 11.9865 63.7502 10.9375 65C9.76945 66.9028 9.02347 69.0341 8.75 71.25C8.45995 69.2363 7.83107 67.2862 6.89 65.4825C5.86601 63.9594 4.29318 62.8909 2.5 62.5ZM65 36.25C66.5594 35.8792 67.963 35.0278 69.0125 33.8162C69.9775 32.5662 70.6137 30.6813 71.25 27.5C71.5235 29.7159 72.2694 31.8472 73.4375 33.75C74.4865 34.9998 75.9116 35.8767 77.5 36.25C75.2775 36.9912 73.9325 37.7313 72.9462 39.5138C72.1139 41.2491 71.5423 43.0977 71.25 45C70.9639 42.9142 70.2952 40.8992 69.2775 39.0563C68.24 37.6321 66.7195 36.6346 65 36.25Z" stroke="#9F2B2B" stroke-linecap="round" stroke-linejoin="round"/>
<path d="M71.1573 78.1553L71.1572 78.1552L71.1537 78.1589C70.8402 78.4766 70.4239 78.6354 70.0018 78.6354C69.6027 78.6354 69.2111 78.4949 68.8936 78.2031L68.8935 78.203L53.2919 63.8772L56.8686 60.2726L71.2085 75.8936L71.2086 75.8937C71.4938 76.2043 71.6478 76.6132 71.6382 77.0348C71.6287 77.4564 71.4563 77.8579 71.1573 78.1553ZM50.2935 60.9182L50.2949 60.9191L51.957 62.0805L51.1508 62.8867C50.0433 62.655 48.4793 62.26 47.1173 61.6668C46.3768 61.3443 45.7207 60.9737 45.2335 60.5569C44.7459 60.1397 44.4655 59.7098 44.3912 59.2689C44.2795 58.5875 44.5343 57.7126 45.0728 56.7591C45.6023 55.8216 46.3613 54.8875 47.1272 54.1216C47.8933 53.3555 48.826 52.5966 49.7618 52.068C50.714 51.5301 51.5872 51.277 52.2679 51.3912L52.2683 51.3913C52.7117 51.4654 53.1441 51.7478 53.5636 52.2392C53.9824 52.7298 54.3545 53.3905 54.6778 54.1353C55.2714 55.503 55.665 57.071 55.8921 58.1738L55.0898 58.9543L52.4448 55.1915L52.4448 55.1915L52.4431 55.1891C52.095 54.6996 51.4173 54.5761 50.9211 54.9178L50.9211 54.9178L50.9146 54.9224C50.4237 55.2715 50.3025 55.9553 50.6433 56.45L50.6433 56.45L50.6459 56.4538L53.4373 60.4327L51.5549 59.1187L51.5549 59.1187L51.5522 59.1168C51.0631 58.7799 50.3812 58.8855 50.0283 59.3909C49.9457 59.5081 49.8869 59.6404 49.8552 59.7803C49.8234 59.9209 49.8197 60.0664 49.8442 60.2084C49.8687 60.3505 49.921 60.4863 49.9981 60.6081C50.0753 60.7299 50.1756 60.8352 50.2935 60.9182Z" stroke="#9F2B2B" stroke-width="1.0625"/>
</svg>
