<svg width="80" height="80" viewBox="0 0 80 80" fill="none" xmlns="http://www.w3.org/2000/svg">
<path d="M70.3824 25.7317L52.256 20.6197L52.1203 21.1009L52.256 20.6197C49.4879 19.839 46.5661 19.779 43.7682 20.4453L1.75 30.4518V27.6308C1.75 23.1897 5.03971 19.4356 9.44251 18.8525L44.282 14.2393C48.1458 13.7277 52.0682 14.556 55.3952 16.5862L70.3824 25.7317Z" stroke="#9F2B2B"/>
<path d="M6.71338 48.6872L7.59322 48.6138C8.84338 48.5094 10.0976 48.8214 11.1343 49.5279C18.3442 54.44 27.2579 57.0297 36.7046 56.2404C47.9868 55.2977 57.7296 49.7377 64.2424 41.6455M37.1549 56.4416V66.4618M42.1626 55.8546C42.1626 55.8546 41.4145 62.5196 46.0392 65.92M46.8893 54.3924C46.8893 57.5549 49.7457 66.8382 57.0568 65.376M53.4287 56.8433C55.9978 60.8747 61.2626 63.4766 67.5556 61.4516M56.7848 49.0366C57.737 54.6304 66.2382 60.631 75.0115 54.9705M61.0693 45.7891C63.7898 51.91 76.6435 53.6783 78.8282 43.9164M31.8728 56.5946C32.0971 61.2274 29.9209 64.7638 29.9209 64.7638M26.6903 56.2286C26.5609 59.6613 23.9868 62.4005 23.9868 62.4005M21.6917 54.8514C20.6035 57.9629 17.8831 58.575 17.8831 58.575" stroke="#9F2B2B" stroke-miterlimit="10" stroke-linecap="round" stroke-linejoin="round"/>
<path d="M8.68145 7.86145L8.68144 7.86146C7.51422 9.02874 6.58835 10.4145 5.95668 11.9396C5.78046 12.3651 5.6281 12.7991 5.5 13.2396C5.3719 12.7991 5.21954 12.3651 5.04332 11.9396C4.41165 10.4145 3.48578 9.02874 2.31856 7.86146L2.31855 7.86145L1.44802 6.99091C3.31904 6.31422 4.77747 4.87277 5.50035 3.08016C5.73991 3.67466 6.06266 4.23683 6.46246 4.74881C7.26408 5.77536 8.33653 6.55031 9.55218 6.99071L8.68145 7.86145ZM63.717 14.9003C63.4018 14.6418 63.0588 14.4241 62.6962 14.25C63.0588 14.0759 63.4018 13.8582 63.717 13.5997C64.624 12.856 65.2454 11.8209 65.4753 10.6706C65.4753 10.6706 65.4753 10.6705 65.4753 10.6705L65.5 10.5471L65.5247 10.6705C65.5247 10.6705 65.5247 10.6706 65.5247 10.6706C65.7546 11.8209 66.376 12.856 67.283 13.5997C67.5982 13.8582 67.9412 14.0759 68.3038 14.25C67.9412 14.4241 67.5982 14.6418 67.283 14.9003C66.376 15.644 65.7546 16.6791 65.5247 17.8293C65.5247 17.8294 65.5247 17.8295 65.5247 17.8295L65.5 17.9529L65.4753 17.8295C65.4753 17.8295 65.4753 17.8294 65.4753 17.8293C65.2454 16.6791 64.624 15.644 63.717 14.9003ZM16.7747 76.5795L16.75 76.7029L16.7253 76.5795C16.7253 76.5795 16.7253 76.5794 16.7253 76.5793C16.4954 75.4291 15.874 74.394 14.967 73.6503C14.6518 73.3918 14.3088 73.1741 13.9462 73C14.3088 72.8259 14.6518 72.6082 14.967 72.3497C15.874 71.606 16.4954 70.5709 16.7253 69.4207C16.7253 69.4206 16.7253 69.4205 16.7253 69.4205L16.75 69.2971L16.7747 69.4205C16.7747 69.4205 16.7747 69.4206 16.7747 69.4207C17.0046 70.5709 17.626 71.606 18.533 72.3497C18.8482 72.6082 19.1912 72.8259 19.5538 73C19.1912 73.1741 18.8482 73.3918 18.533 73.6503C17.626 74.394 17.0046 75.4291 16.7747 76.5793C16.7747 76.5794 16.7747 76.5795 16.7747 76.5795Z" stroke="#9F2B2B"/>
</svg>
