<svg width="78" height="78" viewBox="0 0 78 78" fill="none" xmlns="http://www.w3.org/2000/svg">
<path d="M27.4925 14.6006C24.2435 18.1387 22.4563 22.7768 22.4912 27.5803V45.6004C22.6349 45.6004 22.7785 45.7701 22.9091 46.0966C23.4521 47.4462 24.2615 48.6726 25.2891 49.7024C26.3166 50.7322 27.5412 51.5443 28.8897 52.0902C29.5687 52.3644 29.5687 52.6517 28.8897 52.9129C27.5412 53.4588 26.3166 54.2709 25.2891 55.3007C24.2615 56.3305 23.4521 57.5569 22.9091 58.9065C22.7785 59.246 22.6349 59.4027 22.4912 59.4027V70.0189V75.1246H27.623H51.9763H57.095V70.0058V27.5803C57.1348 22.7784 55.3522 18.14 52.1068 14.6006" stroke="#9F2B2B" stroke-width="1.07143" stroke-linecap="square"/>
<path d="M29.3595 36.0423C28.1188 33.9143 27.4696 31.4934 27.4791 29.0301V15.1364C27.4791 7.86306 32.9765 2 39.7928 2C46.6222 2 52.1196 7.87611 52.1457 15.1494V29.0301C52.1571 31.4953 51.503 33.9179 50.2523 36.0423" stroke="#9F2B2B" stroke-width="1.07143"/>
<path d="M29.3464 36.042C30.3809 37.9055 31.8951 39.4584 33.732 40.5396C35.5688 41.6209 37.6614 42.191 39.7929 42.191C41.9243 42.191 44.0169 41.6209 45.8538 40.5396C47.6906 39.4584 49.2048 37.9055 50.2393 36.042" stroke="#9F2B2B" stroke-width="1.07143"/>
<mask id="path-4-inside-1_26_69" fill="white">
<path d="M22.9093 46.0974C23.4531 47.4487 24.2643 48.6761 25.2943 49.7061C26.3242 50.736 27.5517 51.5473 28.9029 52.0911C29.5689 52.3653 29.5689 52.6526 28.9029 52.9137C27.5517 53.4575 26.3242 54.2688 25.2943 55.2987C24.2643 56.3287 23.4531 57.5561 22.9093 58.9074C22.6351 59.5733 22.3478 59.5733 22.0866 58.9074C21.5413 57.5585 20.7295 56.3336 19.6996 55.306C18.6697 54.2783 17.443 53.4691 16.093 52.9268C15.427 52.6656 15.427 52.3783 16.093 52.1041C17.4442 51.5603 18.6717 50.7491 19.7016 49.7191C20.7316 48.6892 21.5428 47.4617 22.0866 46.1105C22.3478 45.4445 22.6351 45.4445 22.9093 46.1105M66.1575 38.5629C64.8095 39.1061 63.585 39.9157 62.5573 40.9434C61.5297 41.971 60.72 43.1955 60.1769 44.5435C59.9027 45.2225 59.6154 45.2225 59.3542 44.5435C58.8397 43.2748 58.0911 42.1143 57.1474 41.1223V35.1287C58.0911 34.1368 58.8397 32.9762 59.3542 31.7075C59.6154 31.0415 59.9027 31.0415 60.1769 31.7075C60.7199 33.0571 61.5293 34.2835 62.5569 35.3133C63.5844 36.3431 64.809 37.1552 66.1575 37.7011C66.8365 37.9623 66.8365 38.2496 66.1575 38.5238"/>
</mask>
<path d="M28.9029 52.0911L29.3109 51.1003L29.3029 51.0971L28.9029 52.0911ZM28.9029 52.9137L28.5117 51.9162L28.5029 51.9198L28.9029 52.9137ZM22.9093 58.9074L23.9 59.3153L23.9032 59.3074L22.9093 58.9074ZM22.0866 58.9074L23.0841 58.5162L23.0799 58.5058L22.0866 58.9074ZM16.093 52.9268L16.4924 51.9325L16.4841 51.9293L16.093 52.9268ZM16.093 52.1041L15.693 51.1101L15.685 51.1134L16.093 52.1041ZM22.0866 46.1105L23.0806 46.5105L23.0841 46.5017L22.0866 46.1105ZM60.1769 44.5435L61.1704 44.9447L61.1707 44.944L60.1769 44.5435ZM59.3542 44.5435L60.3543 44.1589L60.3508 44.1498L60.3471 44.1408L59.3542 44.5435ZM57.1474 41.1223H56.076V41.5505L56.3712 41.8608L57.1474 41.1223ZM57.1474 35.1287L56.3712 34.3902L56.076 34.7005V35.1287H57.1474ZM59.3542 31.7075L60.3472 32.1102L60.3517 32.0986L59.3542 31.7075ZM60.1769 31.7075L61.1709 31.3076L61.1676 31.2995L60.1769 31.7075ZM66.1575 37.7011L65.7554 38.6942L65.7641 38.6978L65.7729 38.7011L66.1575 37.7011ZM21.9153 46.4974C22.513 47.9826 23.4046 49.3317 24.5366 50.4637L26.0519 48.9485C25.124 48.0206 24.3931 46.9148 23.9032 45.6974L21.9153 46.4974ZM24.5366 50.4637C25.6687 51.5957 27.0177 52.4873 28.5029 53.085L29.3029 51.0971C28.0856 50.6072 26.9798 49.8764 26.0519 48.9485L24.5366 50.4637ZM28.495 53.0818C28.6161 53.1317 28.6274 53.1516 28.5904 53.1207C28.566 53.1003 28.3309 52.8978 28.3309 52.5073C28.3309 52.1126 28.5705 51.9077 28.6 51.8835C28.6404 51.8505 28.6322 51.869 28.5117 51.9163L29.2941 53.9112C29.5066 53.8279 29.7481 53.7125 29.955 53.5436C30.151 53.3836 30.4738 53.0408 30.4738 52.5073C30.4738 51.9781 30.1555 51.636 29.9646 51.4765C29.7612 51.3064 29.5227 51.1876 29.3109 51.1003L28.495 53.0818ZM28.5029 51.9198C27.0177 52.5175 25.6687 53.4091 24.5366 54.5411L26.0519 56.0563C26.9798 55.1284 28.0856 54.3976 29.3029 53.9077L28.5029 51.9198ZM24.5366 54.5411C23.4046 55.6731 22.513 57.0222 21.9153 58.5074L23.9032 59.3074C24.3931 58.09 25.124 56.9842 26.0519 56.0563L24.5366 54.5411ZM21.9185 58.4994C21.8687 58.6206 21.8488 58.6318 21.8797 58.5949C21.9001 58.5705 22.1026 58.3354 22.493 58.3354C22.8878 58.3354 23.0927 58.5749 23.1168 58.6045C23.1498 58.6449 23.1313 58.6366 23.0841 58.5162L21.0891 59.2985C21.1725 59.5111 21.2879 59.7526 21.4567 59.9594C21.6167 60.1555 21.9596 60.4783 22.493 60.4783C23.0223 60.4783 23.3643 60.16 23.5239 59.9691C23.6939 59.7656 23.8128 59.5271 23.9 59.3153L21.9185 58.4994ZM23.0799 58.5058C22.4806 57.0233 21.5883 55.677 20.4564 54.5475L18.9428 56.0644C19.8706 56.9902 20.602 58.0937 21.0933 59.3089L23.0799 58.5058ZM20.4564 54.5475C19.3244 53.4181 17.9762 52.5286 16.4924 51.9326L15.6936 53.921C16.9098 54.4096 18.015 55.1386 18.9428 56.0644L20.4564 54.5475ZM16.4841 51.9293C16.3637 51.8821 16.3555 51.8636 16.3958 51.8966C16.4254 51.9207 16.6649 52.1256 16.6649 52.5204C16.6649 52.9108 16.4299 53.1133 16.4055 53.1337C16.3685 53.1646 16.3798 53.1447 16.5009 53.0949L15.685 51.1134C15.4732 51.2006 15.2347 51.3195 15.0313 51.4895C14.8404 51.6491 14.5221 51.9911 14.5221 52.5204C14.5221 53.0538 14.8448 53.3967 15.0409 53.5567C15.2478 53.7255 15.4893 53.8409 15.7018 53.9243L16.4841 51.9293ZM16.493 53.0981C17.9781 52.5004 19.3272 51.6088 20.4592 50.4768L18.944 48.9615C18.0161 49.8894 16.9103 50.6203 15.693 51.1102L16.493 53.0981ZM20.4592 50.4768C21.5913 49.3447 22.4829 47.9957 23.0806 46.5105L21.0927 45.7105C20.6027 46.9278 19.8719 48.0336 18.944 48.9615L20.4592 50.4768ZM23.0841 46.5017C23.1313 46.3812 23.1498 46.373 23.1168 46.4134C23.0927 46.4429 22.8878 46.6824 22.493 46.6824C22.1026 46.6824 21.9001 46.4474 21.8797 46.423C21.8488 46.386 21.8687 46.3973 21.9185 46.5184L23.9 45.7025C23.8128 45.4907 23.6939 45.2522 23.5239 45.0488C23.3643 44.8579 23.0223 44.5396 22.493 44.5396C21.9596 44.5396 21.6167 44.8624 21.4567 45.0584C21.2879 45.2653 21.1725 45.5068 21.0891 45.7193L23.0841 46.5017ZM65.7571 37.5692C64.2753 38.1662 62.9293 39.0562 61.7997 40.1858L63.315 41.701C64.2406 40.7753 65.3437 40.046 66.5579 39.5567L65.7571 37.5692ZM61.7997 40.1858C60.6701 41.3154 59.7801 42.6614 59.1831 44.1431L61.1707 44.944C61.66 43.7297 62.3893 42.6267 63.315 41.701L61.7997 40.1858ZM59.1834 44.1423C59.1328 44.2676 59.1117 44.2817 59.1408 44.2462C59.1577 44.2257 59.3614 43.9814 59.7607 43.9814C60.1643 43.9814 60.3703 44.2303 60.3909 44.2559C60.4219 44.2948 60.4022 44.2835 60.3543 44.1589L58.3542 44.9281C58.4369 45.143 58.551 45.3864 58.718 45.595C58.8744 45.7904 59.2183 46.1242 59.7607 46.1242C60.2987 46.1242 60.642 45.795 60.798 45.6047C60.9663 45.3995 61.0839 45.159 61.1704 44.9447L59.1834 44.1423ZM60.3471 44.1408C59.7821 42.7476 58.96 41.4731 57.9237 40.3838L56.3712 41.8608C57.2222 42.7554 57.8973 43.802 58.3614 44.9462L60.3471 44.1408ZM58.2189 41.1223V35.1287H56.076V41.1223H58.2189ZM57.9237 35.8672C58.96 34.7779 59.7821 33.5034 60.3471 32.1102L58.3614 31.3048C57.8973 32.449 57.2222 33.4956 56.3712 34.3902L57.9237 35.8672ZM60.3517 32.0986C60.3989 31.9782 60.4174 31.97 60.3845 32.0103C60.3603 32.0399 60.1554 32.2794 59.7607 32.2794C59.3702 32.2794 59.1677 32.0444 59.1473 32.02C59.1164 31.983 59.1363 31.9943 59.1862 32.1154L61.1676 31.2995C61.0804 31.0877 60.9615 30.8492 60.7915 30.6458C60.632 30.4549 60.2899 30.1366 59.7607 30.1366C59.2272 30.1366 58.8844 30.4593 58.7243 30.6554C58.5555 30.8623 58.4401 31.1038 58.3568 31.3163L60.3517 32.0986ZM59.1829 32.1074C59.7796 33.5906 60.6692 34.9383 61.7984 36.0701L63.3153 34.5565C62.3895 33.6286 61.6601 32.5236 61.1709 31.3076L59.1829 32.1074ZM61.7984 36.0701C62.9277 37.2018 64.2735 38.0943 65.7554 38.6942L66.5595 36.708C65.3446 36.2161 64.2412 35.4844 63.3153 34.5565L61.7984 36.0701ZM65.7729 38.7011C65.8975 38.7491 65.9087 38.7688 65.8699 38.7377C65.8442 38.7172 65.5953 38.5112 65.5953 38.1075C65.5953 37.7083 65.8396 37.5045 65.8602 37.4877C65.8957 37.4586 65.8816 37.4797 65.7563 37.5303L66.5587 39.5172C66.7729 39.4307 67.0134 39.3131 67.2187 39.1449C67.409 38.9889 67.7382 38.6456 67.7382 38.1075C67.7382 37.5652 67.4044 37.2212 67.209 37.0648C67.0004 36.8978 66.757 36.7837 66.5421 36.7011L65.7729 38.7011Z" fill="#9F2B2B" mask="url(#path-4-inside-1_26_69)"/>
<path d="M66.8358 56.6086C66.8358 57.0372 66.7087 57.4563 66.4706 57.8127C66.2324 58.1691 65.8939 58.4469 65.4979 58.6109C65.1019 58.775 64.6661 58.8179 64.2457 58.7343C63.8253 58.6506 63.4391 58.4442 63.136 58.1411C62.8329 57.838 62.6265 57.4518 62.5429 57.0314C62.4593 56.611 62.5022 56.1752 62.6662 55.7792C62.8302 55.3832 63.108 55.0447 63.4645 54.8066C63.8209 54.5684 64.2399 54.4413 64.6685 54.4413C65.2433 54.4413 65.7946 54.6696 66.201 55.0761C66.6075 55.4825 66.8358 56.0338 66.8358 56.6086ZM18.4819 14.2744C18.4819 14.9614 18.2782 15.6328 17.8966 16.204C17.515 16.7751 16.9725 17.2203 16.3379 17.4832C15.7033 17.746 15.005 17.8148 14.3313 17.6808C13.6575 17.5468 13.0387 17.216 12.553 16.7303C12.0672 16.2446 11.7365 15.6257 11.6025 14.952C11.4684 14.2783 11.5372 13.58 11.8001 12.9453C12.063 12.3107 12.5081 11.7683 13.0793 11.3867C13.6504 11.005 14.3219 10.8013 15.0088 10.8013C15.4649 10.8013 15.9165 10.8912 16.3379 11.0657C16.7593 11.2403 17.1422 11.4961 17.4647 11.8186C17.7872 12.1411 18.043 12.524 18.2175 12.9453C18.3921 13.3667 18.4819 13.8183 18.4819 14.2744Z" stroke="#9F2B2B" stroke-width="1.07143"/>
</svg>
