<svg width="80" height="80" viewBox="0 0 80 80" fill="none" xmlns="http://www.w3.org/2000/svg">
<path d="M69.3397 18.1598L69.3403 18.1603L75.174 23.9929L57.8403 41.3155L57.8393 41.3166C57.1911 41.9681 56.4206 42.4852 55.572 42.838C54.7234 43.1908 53.8134 43.3724 52.8944 43.3724C51.9754 43.3724 51.0654 43.1908 50.2168 42.838C49.3682 42.4852 48.5976 41.9681 47.9495 41.3166L47.9486 41.3157L47.0611 40.4282L43.6197 36.9868C44.3357 37.1925 45.0784 37.2975 45.8263 37.2975C46.878 37.2975 47.9194 37.0899 48.8908 36.6866C49.8621 36.2832 50.7443 35.6921 51.4867 34.9472L68.807 17.6256L69.3397 18.1598Z" stroke="#9F2B2B"/>
<path d="M57.3614 41.8611L46.7063 52.8101L40.5188 46.9675L46.7063 40.7812" stroke="#9F2B2B"/>
<path d="M40.5188 46.9679L34.9939 52.5066L3.05635 65.2929C1.99385 65.7941 1.25635 66.8691 1.25635 68.1316C1.25635 69.8566 2.64385 71.2566 4.38135 71.2566H38.7439C41.5064 71.2566 43.7438 69.0191 43.7438 66.2566V63.7566C43.7438 63.7566 62.5063 53.7566 78.7313 41.2304H78.7438V8.74414L69.6926 17.8066" stroke="#9F2B2B"/>
<path d="M37.6814 7.86145L38.03 8.21002L37.6814 7.86146C36.5142 9.02873 35.5883 10.4145 34.9567 11.9396C34.7805 12.3651 34.6281 12.7991 34.5 13.2396C34.3719 12.7991 34.2195 12.3651 34.0433 11.9396C33.4117 10.4145 32.4858 9.02873 31.3186 7.86146L30.9695 8.21053L31.3186 7.86145L30.448 6.99091C32.319 6.31422 33.7775 4.87277 34.5004 3.08016C34.7399 3.67466 35.0627 4.23683 35.4625 4.74881C36.2641 5.77536 37.3365 6.55031 38.5522 6.99071L37.6814 7.86145ZM62.717 14.9003C62.4018 14.6418 62.0588 14.4241 61.6962 14.25C62.0588 14.0759 62.4018 13.8582 62.717 13.5997C63.624 12.856 64.2454 11.8209 64.4753 10.6706C64.4753 10.6706 64.4753 10.6705 64.4753 10.6705L64.5 10.5471L64.5247 10.6705C64.5247 10.6705 64.5247 10.6705 64.5247 10.6706C64.5247 10.6706 64.5247 10.6706 64.5247 10.6706C64.7546 11.8209 65.376 12.856 66.283 13.5997C66.5982 13.8582 66.9412 14.0759 67.3038 14.25C66.9412 14.4241 66.5982 14.6418 66.283 14.9003C65.376 15.644 64.7546 16.6791 64.5247 17.8293C64.5247 17.8294 64.5247 17.8295 64.5247 17.8295L64.5 17.9529L64.4753 17.8295C64.4753 17.8295 64.4753 17.8295 64.4753 17.8294C64.4753 17.8294 64.4753 17.8294 64.4753 17.8293C64.2454 16.6791 63.624 15.644 62.717 14.9003ZM3.96698 33.6503C3.65176 33.3918 3.30881 33.1741 2.94623 33C3.30881 32.8259 3.65176 32.6082 3.96698 32.3497C4.87404 31.606 5.49538 30.5709 5.72527 29.4207C5.72528 29.4206 5.72529 29.4205 5.72531 29.4205L5.75 29.2971L5.77469 29.4205C5.77471 29.4205 5.77472 29.4206 5.77473 29.4207C6.00462 30.5709 6.62596 31.606 7.53302 32.3497C7.84824 32.6082 8.19119 32.8259 8.55377 33C8.19119 33.1741 7.84824 33.3918 7.53302 33.6503C6.62596 34.394 6.00462 35.4291 5.77473 36.5793C5.77472 36.5794 5.77471 36.5795 5.77469 36.5795L5.75 36.7029L5.72531 36.5795C5.7253 36.5795 5.72529 36.5795 5.72529 36.5794C5.72528 36.5794 5.72528 36.5794 5.72527 36.5793C5.49538 35.4291 4.87404 34.394 3.96698 33.6503Z" stroke="#9F2B2B"/>
</svg>
